<svg width="40" height="40" viewBox="0 0 40 40" fill="none" xmlns="http://www.w3.org/2000/svg">
<rect width="40" height="40" rx="8" fill="#960087"/>
<mask id="mask0_22_19" style="mask-type:luminance" maskUnits="userSpaceOnUse" x="5" y="4" width="31" height="31">
<path d="M36 4H5V35H36V4Z" fill="#ffcbfa"/>
</mask>
<g mask="url(#mask0_22_19)">
<path d="M20.5 6.79121C24.6414 6.79121 25.1319 6.80938 26.7606 6.88203C28.2742 6.94863 29.0916 7.20293 29.6365 7.41484C30.357 7.69336 30.8778 8.03242 31.4166 8.57129C31.9615 9.11621 32.2945 9.63086 32.5731 10.3514C32.785 10.8963 33.0392 11.7197 33.1059 13.2273C33.1785 14.8621 33.1967 15.3525 33.1967 19.4879C33.1967 23.6293 33.1785 24.1197 33.1059 25.7484C33.0392 27.2621 32.785 28.0795 32.5731 28.6244C32.2945 29.345 31.9555 29.8656 31.4166 30.4045C30.8717 30.9494 30.357 31.2825 29.6365 31.5609C29.0916 31.7728 28.2681 32.0272 26.7606 32.0938C25.1258 32.1664 24.6353 32.1846 20.5 32.1846C16.3586 32.1846 15.8681 32.1664 14.2395 32.0938C12.7258 32.0272 11.9084 31.7728 11.3635 31.5609C10.643 31.2825 10.1223 30.9434 9.5834 30.4045C9.03848 29.8596 8.70547 29.345 8.42695 28.6244C8.21504 28.0795 7.96075 27.2561 7.89414 25.7484C7.82148 24.1137 7.80332 23.6233 7.80332 19.4879C7.80332 15.3465 7.82148 14.8561 7.89414 13.2273C7.96075 11.7136 8.21504 10.8963 8.42695 10.3514C8.70547 9.63086 9.04453 9.11016 9.5834 8.57129C10.1283 8.02637 10.643 7.69336 11.3635 7.41484C11.9084 7.20293 12.7319 6.94863 14.2395 6.88203C15.8681 6.80938 16.3586 6.79121 20.5 6.79121ZM20.5 4C16.292 4 15.7653 4.01816 14.1123 4.09082C12.4654 4.16348 11.3332 4.42988 10.3523 4.81133C9.3291 5.21094 8.46328 5.73769 7.60352 6.60352C6.7377 7.46328 6.21094 8.3291 5.81133 9.34629C5.42988 10.3332 5.16348 11.4594 5.09082 13.1063C5.01816 14.7652 5 15.292 5 19.5C5 23.708 5.01816 24.2347 5.09082 25.8877C5.16348 27.5346 5.42988 28.6668 5.81133 29.6477C6.21094 30.6709 6.7377 31.5367 7.60352 32.3965C8.46328 33.2563 9.3291 33.7891 10.3463 34.1826C11.3332 34.5641 12.4594 34.8305 14.1062 34.9031C15.7592 34.9758 16.2859 34.9939 20.4939 34.9939C24.702 34.9939 25.2287 34.9758 26.8817 34.9031C28.5285 34.8305 29.6608 34.5641 30.6416 34.1826C31.6588 33.7891 32.5246 33.2563 33.3844 32.3965C34.2441 31.5367 34.777 30.6709 35.1705 29.6537C35.552 28.6668 35.8184 27.5406 35.891 25.8938C35.9637 24.2408 35.9819 23.7141 35.9819 19.5061C35.9819 15.2981 35.9637 14.7713 35.891 13.1184C35.8184 11.4715 35.552 10.3393 35.1705 9.3584C34.7891 8.3291 34.2623 7.46328 33.3965 6.60352C32.5367 5.74375 31.6709 5.21094 30.6537 4.81738C29.6668 4.43594 28.5406 4.16953 26.8938 4.09688C25.2348 4.01816 24.708 4 20.5 4Z" fill="#ffcbfa"/>
<path d="M20.5 11.5381C16.1043 11.5381 12.5381 15.1043 12.5381 19.5C12.5381 23.8957 16.1043 27.4619 20.5 27.4619C24.8957 27.4619 28.4619 23.8957 28.4619 19.5C28.4619 15.1043 24.8957 11.5381 20.5 11.5381ZM20.5 24.6646C17.6483 24.6646 15.3353 22.3517 15.3353 19.5C15.3353 16.6482 17.6483 14.3353 20.5 14.3353C23.3518 14.3353 25.6647 16.6482 25.6647 19.5C25.6647 22.3517 23.3518 24.6646 20.5 24.6646Z" fill="white"/>
<path d="M30.6355 11.2233C30.6355 12.2526 29.8 13.0821 28.7767 13.0821C27.7475 13.0821 26.918 12.2466 26.918 11.2233C26.918 10.194 27.7535 9.3645 28.7767 9.3645C29.8 9.3645 30.6355 10.2001 30.6355 11.2233Z" fill="white"/>
</g>
</svg>
