<svg width="107" height="60" viewBox="0 0 107 60" fill="none" xmlns="http://www.w3.org/2000/svg">
<path d="M17.226 9.36473C17.226 10.1496 17.5292 10.8809 18.1357 11.5587C18.7599 12.2187 19.5091 12.8073 20.3831 13.3245C21.275 13.824 22.1579 14.3413 23.0319 14.8764C23.9059 15.3936 24.6462 16.0358 25.2526 16.8028C25.8769 17.5698 26.1891 18.417 26.1891 19.3445C26.1891 20.8072 25.645 22.0023 24.557 22.9298C23.4868 23.8573 22.033 24.3211 20.1958 24.3211C18.3586 24.3211 16.5392 23.9732 14.7377 23.2776V22.0201C16.5571 22.9298 18.1 23.3846 19.3664 23.3846C20.6507 23.3846 21.6495 23.0725 22.363 22.4482C23.0765 21.8239 23.4332 20.9588 23.4332 19.8529C23.4332 19.1037 23.1389 18.4259 22.5503 17.8195C21.9617 17.1952 21.2482 16.6601 20.4099 16.2141C19.5715 15.7504 18.7332 15.2777 17.8949 14.7961C17.0565 14.3145 16.343 13.708 15.7544 12.9767C15.1658 12.2276 14.8715 11.3268 14.8715 10.2744C14.8715 9.22203 15.3352 8.241 16.2628 7.33131C17.2081 6.42162 18.6083 5.96678 20.4634 5.96678C21.6763 5.96678 23.2103 6.24325 25.0653 6.7962L24.7978 8.61557C22.3898 7.58103 20.3296 7.06375 18.6173 7.06375C17.6897 7.50968 17.226 8.27667 17.226 9.36473ZM36.481 24H33.8857V7.57211C33.2792 7.42941 32.6728 7.35806 32.0663 7.35806L28.4543 8.18749L28.2938 6.28784H42.0729L41.9391 8.18749L38.3003 7.35806C37.6939 7.35806 37.0874 7.42941 36.481 7.57211V24ZM58.1839 6.28784V17.1506C58.1839 18.8094 58.0055 20.058 57.6488 20.8964C57.4882 21.2709 57.2296 21.699 56.8728 22.1806C56.5339 22.6444 56.1326 23.019 55.6688 23.3044C54.4916 23.9822 53.02 24.3211 51.2542 24.3211C46.8306 24.3211 44.6188 22.0468 44.6188 17.4984V6.28784H47.3479V17.7125C47.3479 18.2297 47.3568 18.6489 47.3746 18.97C47.3925 19.291 47.4817 19.7459 47.6422 20.3345C47.8206 20.9231 48.0524 21.3958 48.3378 21.7525C48.6411 22.1093 49.1048 22.4303 49.7291 22.7157C50.3712 23.0011 51.1293 23.1438 52.0033 23.1438C55.3389 23.1438 57.0066 21.3601 57.0066 17.7927V6.28784H58.1839ZM62.8721 24V6.28784H67.9289C70.0337 6.28784 71.9333 6.73377 73.6279 7.62562C74.5375 8.08938 75.3313 8.66909 76.0091 9.36473C76.6869 10.0604 77.2309 10.9522 77.6412 12.0403C78.0514 13.1105 78.2566 14.3056 78.2566 15.6255C78.2566 17.5162 77.7839 19.1127 76.8385 20.4148C75.1083 22.8049 72.3079 24 68.4373 24H62.8721ZM67.9022 23.0903C70.1675 23.0903 71.9869 22.4214 73.3603 21.0836C74.7338 19.7459 75.4205 17.7838 75.4205 15.1974C75.4205 13.1997 74.8765 11.4963 73.7884 10.0871C72.7003 8.66017 71.2912 7.7148 69.561 7.25104C68.0092 7.25104 66.6536 7.43833 65.4942 7.81291V22.8495C66.065 23.01 66.8676 23.0903 67.9022 23.0903ZM84.5443 6.28784V24H82.0828V6.28784H84.5443ZM97.6936 5.96678C100.012 5.96678 101.93 6.73377 103.446 8.26775C104.962 9.7839 105.72 11.8976 105.72 14.6088C105.72 16.3568 105.417 17.8908 104.811 19.2108C104.204 20.5129 103.41 21.5207 102.429 22.2341C100.521 23.6254 98.416 24.3211 96.115 24.3211C93.8141 24.3211 91.9055 23.5541 90.3894 22.0201C88.8911 20.4683 88.1419 18.3367 88.1419 15.6255C88.1419 14.2164 88.3381 12.95 88.7305 11.8262C89.1408 10.6847 89.667 9.75714 90.3091 9.04366C90.9691 8.33018 91.7271 7.73264 92.5833 7.25104C94.153 6.39487 95.8564 5.96678 97.6936 5.96678ZM92.3158 20.9499C92.7795 21.7347 93.4038 22.3501 94.1886 22.796C94.9735 23.2241 95.8742 23.4381 96.891 23.4381C97.9255 23.4381 98.8441 23.1795 99.6468 22.6622C100.449 22.145 101.074 21.4671 101.52 20.6288C102.429 18.9521 102.884 17.1506 102.884 15.2242C102.884 12.8519 102.412 10.9433 101.466 9.49851C100.414 7.87534 98.6747 7.06375 96.2488 7.06375C94.5186 7.67021 93.2076 8.71368 92.3158 10.1941C91.4239 11.6746 90.978 13.3513 90.978 15.2242C90.978 17.5073 91.4239 19.4159 92.3158 20.9499ZM23.46 54.3211C20.6953 54.3211 18.3675 53.5719 16.4768 52.0736C14.5861 50.5753 13.6407 48.4259 13.6407 45.6255C13.6407 43.9845 13.9529 42.5219 14.5772 41.2376C15.2015 39.9534 16.022 38.9456 17.0387 38.2142C19.0899 36.7159 21.3909 35.9668 23.9416 35.9668C25.4221 35.9668 26.965 36.2343 28.5703 36.7694L28.3028 38.5888C27.4644 38.2321 26.8134 37.9645 26.3496 37.7862C25.0118 37.3046 23.6651 37.0638 22.3095 37.0638C20.4366 37.4918 18.9918 38.4194 17.9751 39.8463C16.9762 41.2733 16.4768 43.057 16.4768 45.1974C16.4768 47.8195 17.1635 49.844 18.537 51.2709C19.9104 52.6801 21.7209 53.3846 23.9684 53.3846C26.2158 53.3846 27.8925 52.903 28.9984 51.9398V53.4114C27.4644 54.0178 25.6183 54.3211 23.46 54.3211ZM30.3318 54L38.2782 35.8598H38.6795L46.6259 54H43.7095L41.7029 49.184H33.7565L31.7766 54H30.3318ZM34.1578 48.1673H41.2748L37.7431 39.4985L34.1578 48.1673ZM52.1885 45.5453V54H49.5665V36.2878H55.3457C57.1472 36.2878 58.6188 36.6892 59.7603 37.4918C60.9198 38.2945 61.4995 39.3558 61.4995 40.6757C61.4995 41.9779 61.0357 43.0124 60.1082 43.7794C59.1985 44.5285 57.9588 45.0458 56.3892 45.3312L63.5596 54L60.456 54.3746L54.2487 45.5453H52.1885ZM52.1885 44.7426H53.9009C57.1116 44.7426 58.7169 43.4762 58.7169 40.9433C58.7169 40.5152 58.6099 40.0336 58.3958 39.4985C57.9856 38.3748 57.1116 37.6345 55.7738 37.2778C54.5609 37.2778 53.3658 37.4294 52.1885 37.7326V44.7426ZM74.9493 35.9668C77.2681 35.9668 79.1856 36.7338 80.7018 38.2678C82.2179 39.7839 82.976 41.8976 82.976 44.6088C82.976 46.3568 82.6728 47.8908 82.0663 49.2108C81.4598 50.5129 80.6661 51.5207 79.6851 52.2341C77.7765 53.6254 75.6717 54.3211 73.3708 54.3211C71.0698 54.3211 69.1612 53.5541 67.6451 52.0201C66.1468 50.4683 65.3976 48.3367 65.3976 45.6255C65.3976 44.2164 65.5938 42.95 65.9862 41.8262C66.3965 40.6847 66.9227 39.7571 67.5648 39.0437C68.2248 38.3302 68.9829 37.7326 69.839 37.251C71.4087 36.3949 73.1121 35.9668 74.9493 35.9668ZM69.5715 50.9499C70.0352 51.7347 70.6595 52.3501 71.4444 52.796C72.2292 53.2241 73.13 53.4381 74.1467 53.4381C75.1812 53.4381 76.0998 53.1795 76.9025 52.6622C77.7052 52.145 78.3294 51.4671 78.7754 50.6288C79.6851 48.9521 80.1399 47.1506 80.1399 45.2242C80.1399 42.8519 79.6672 40.9433 78.7219 39.4985C77.6695 37.8753 75.9304 37.0638 73.5045 37.0638C71.7743 37.6702 70.4633 38.7137 69.5715 40.1941C68.6796 41.6746 68.2337 43.3513 68.2337 45.2242C68.2337 47.5073 68.6796 49.4159 69.5715 50.9499ZM86.5508 54V36.2878H89.1728V52.5552C90.2609 52.8763 91.1349 53.0368 91.7949 53.0368L96.6376 52.2074L96.3165 54H86.5508Z" fill="black"/>
<rect width="9.0241" height="59.3012" rx="4.51205" fill="url(#paint0_linear_24_4)"/>
<defs>
<linearGradient id="paint0_linear_24_4" x1="4.51205" y1="0" x2="4.51205" y2="59.3012" gradientUnits="userSpaceOnUse">
<stop stop-color="#FF4DED"/>
<stop offset="1" stop-color="white"/>
</linearGradient>
</defs>
</svg>
