<svg width="40" height="40" viewBox="0 0 40 40" fill="none" xmlns="http://www.w3.org/2000/svg">
<rect width="40" height="40" rx="8" fill="#960087"/>
<g clip-path="url(#clip0_22_9)">
<rect width="29" height="29" transform="translate(6 5)" fill="#960087"/>
<path d="M6 34L8.03846 26.553C6.78058 24.3732 6.11963 21.9022 6.12083 19.3683C6.12446 11.4465 12.5709 5 20.4915 5C24.3353 5.00121 27.9433 6.49833 30.6573 9.21467C33.37 11.931 34.8635 15.5415 34.8623 19.3816C34.8586 27.3046 28.4122 33.7511 20.4915 33.7511C18.087 33.7499 15.7174 33.1469 13.6185 32.0014L6 34ZM13.9714 29.3999C15.9965 30.6022 17.9299 31.3223 20.4867 31.3235C27.0697 31.3235 32.4323 25.9658 32.4359 19.3792C32.4383 12.7793 27.1011 7.42875 20.4964 7.42633C13.9085 7.42633 8.54958 12.7841 8.54717 19.3695C8.54596 22.058 9.33379 24.0711 10.6569 26.1772L9.44979 30.5853L13.9714 29.3999ZM27.7307 22.7975C27.6413 22.6477 27.402 22.5583 27.0419 22.3783C26.683 22.1982 24.9177 21.3294 24.5878 21.2098C24.2591 21.0902 24.0199 21.0298 23.7794 21.3898C23.5402 21.7487 22.8514 22.5583 22.6424 22.7975C22.4333 23.0368 22.2231 23.067 21.8642 22.887C21.5053 22.7069 20.3478 22.3287 18.9763 21.1047C17.9093 20.1525 17.188 18.9768 16.9789 18.6167C16.7699 18.2578 16.9572 18.0633 17.136 17.8845C17.2979 17.7238 17.4949 17.4652 17.6749 17.2549C17.8574 17.0471 17.9166 16.8973 18.0374 16.6568C18.157 16.4175 18.0978 16.2073 18.0072 16.0273C17.9166 15.8484 17.1988 14.0806 16.9004 13.3617C16.608 12.662 16.3119 12.7563 16.092 12.7454L15.4033 12.7333C15.164 12.7333 14.7749 12.8228 14.4462 13.1828C14.1176 13.5429 13.1896 14.4105 13.1896 16.1783C13.1896 17.9461 14.4765 19.6535 14.6553 19.8927C14.8353 20.132 17.1868 23.7594 20.7888 25.3145C21.6455 25.6843 22.3149 25.9054 22.8357 26.0709C23.696 26.344 24.479 26.3053 25.0977 26.2135C25.7877 26.1108 27.222 25.3447 27.5216 24.5061C27.8213 23.6663 27.8213 22.9474 27.7307 22.7975Z" fill="white"/>
</g>
<defs>
<clipPath id="clip0_22_9">
<rect width="29" height="29" fill="white" transform="translate(6 5)"/>
</clipPath>
</defs>
</svg>
