<svg width="50" height="50" viewBox="0 0 26 25" fill="none" xmlns="http://www.w3.org/2000/svg">
<rect width="26" height="25" rx="4" fill="#00D95F"/>
<path d="M4.78185 19.7401L5.96138 15.3582C5.01011 13.6512 4.70789 11.6593 5.11016 9.74805C5.51243 7.83676 6.59222 6.13426 8.15137 4.95298C9.71053 3.7717 11.6445 3.19086 13.5983 3.31706C15.5522 3.44325 17.3949 4.26802 18.7883 5.64C20.1817 7.01199 21.0323 8.83917 21.1841 10.7862C21.3359 12.7333 20.7786 14.6697 19.6146 16.24C18.4506 17.8104 16.7579 18.9094 14.8471 19.3353C12.9363 19.7613 10.9356 19.4856 9.21206 18.5589L4.78185 19.7401ZM9.42568 16.9192L9.69967 17.0813C10.948 17.8194 12.4061 18.1248 13.8466 17.95C15.2872 17.7752 16.6293 17.1299 17.6638 16.1149C18.6984 15.0998 19.3672 13.7719 19.5661 12.3381C19.765 10.9042 19.4828 9.44507 18.7635 8.18792C18.0442 6.93078 16.9282 5.94628 15.5893 5.38786C14.2505 4.82943 12.7641 4.72845 11.3617 5.10063C9.95934 5.47282 8.71978 6.29728 7.83621 7.44552C6.95264 8.59377 6.47469 10.0013 6.47685 11.4488C6.47567 12.649 6.80844 13.8259 7.43812 14.8487L7.60994 15.1312L6.95052 17.5769L9.42568 16.9192Z" fill="#FBFFFD"/>
<path fill-rule="evenodd" clip-rule="evenodd" d="M16.0755 12.5739C15.9149 12.4447 15.7268 12.3538 15.5257 12.308C15.3245 12.2623 15.1155 12.2629 14.9146 12.3099C14.6127 12.435 14.4177 12.9074 14.2226 13.1437C14.1815 13.2003 14.1211 13.24 14.0527 13.2554C13.9843 13.2707 13.9126 13.2607 13.8511 13.227C12.746 12.7953 11.8198 12.0036 11.2227 10.9805C11.1718 10.9167 11.1477 10.8356 11.1555 10.7544C11.1633 10.6732 11.2024 10.5982 11.2645 10.5451C11.482 10.3303 11.6418 10.0643 11.7289 9.77157C11.7482 9.44872 11.6741 9.12714 11.5153 8.84516C11.3925 8.44985 11.1588 8.09785 10.8419 7.83075C10.6785 7.75742 10.4972 7.73283 10.3201 7.75995C10.1429 7.78708 9.97738 7.86475 9.84349 7.98361C9.61106 8.18364 9.42656 8.43313 9.3036 8.7137C9.18063 8.99427 9.12233 9.29879 9.13299 9.60481C9.13371 9.77667 9.15554 9.94778 9.198 10.1143C9.30583 10.5145 9.47167 10.8968 9.69025 11.2492C9.84795 11.5191 10.02 11.7804 10.2057 12.032C10.8092 12.8583 11.5678 13.5599 12.4394 14.0979C12.8768 14.3712 13.3442 14.5935 13.8325 14.7602C14.3398 14.9896 14.8999 15.0776 15.4532 15.015C15.7685 14.9674 16.0673 14.8432 16.3232 14.6534C16.5791 14.4636 16.7843 14.214 16.9207 13.9265C17.0009 13.7528 17.0252 13.5587 16.9904 13.3706C16.9068 12.9862 16.3913 12.7592 16.0755 12.5739Z" fill="#FBFFFD"/>
</svg>
